<?xml version="1.0" encoding="utf-8"?>
<svg viewBox="13.904 33.165 310.2 172.1" xmlns="http://www.w3.org/2000/svg">
  <path d="M87.6 162.7c3.7.8 5.4 2.1 5.4 4.7 0 2.9-2.4 4.7-5.6 4.7-2.6 0-4.8-.9-6.8-2.6l1.2-1.4c1.7 1.6 3.4 2.3 5.7 2.3 2.2 0 3.7-1.2 3.7-2.8 0-1.6-.8-2.4-4.3-3.2-3.8-.8-5.6-2.1-5.6-4.8 0-2.6 2.3-4.5 5.4-4.5 2.4 0 4.1.7 5.8 2l-1.1 1.4c-1.5-1.3-3.1-1.8-4.8-1.8-2.1 0-3.5 1.2-3.5 2.7 0 1.7.8 2.5 4.5 3.3M99.5 155.4h1.9v16.5h-1.9zM115 162.7c3.7.8 5.4 2.1 5.4 4.7 0 2.9-2.4 4.7-5.6 4.7-2.6 0-4.8-.9-6.8-2.6l1.2-1.4c1.7 1.6 3.4 2.3 5.7 2.3 2.2 0 3.7-1.2 3.7-2.8 0-1.6-.8-2.4-4.3-3.2-3.8-.8-5.5-2.1-5.5-4.8 0-2.6 2.3-4.5 5.4-4.5 2.4 0 4.1.7 5.8 2l-1.1 1.4c-1.5-1.3-3.1-1.8-4.8-1.8-2.1 0-3.5 1.2-3.5 2.7-.1 1.7.8 2.5 4.4 3.3M134.4 171.9h-1.9v-14.8H127v-1.7h13v1.7h-5.6zM158.5 157.1h-10.1v5.6h9v1.7h-9v5.8h10.2v1.7h-12.1v-16.5h12zM173.1 167.4h-.1l-6-8.9v13.4h-1.8v-16.5h1.9l6 9 6-9h1.9v16.5h-1.9v-13.4zM204.4 171.9h-2l-1.9-4.4h-9l-2 4.4h-1.9l7.5-16.7h1.8l7.5 16.7zm-8.4-14.5l-3.8 8.4h7.5l-3.7-8.4zM218 162.7c3.7.8 5.4 2.1 5.4 4.7 0 2.9-2.4 4.7-5.6 4.7-2.6 0-4.8-.9-6.8-2.6l1.2-1.4c1.7 1.6 3.4 2.3 5.7 2.3 2.2 0 3.7-1.2 3.7-2.8 0-1.6-.8-2.4-4.3-3.2-3.8-.8-5.5-2.1-5.5-4.8 0-2.6 2.3-4.5 5.4-4.5 2.4 0 4.1.7 5.8 2l-1.1 1.4c-1.5-1.3-3.1-1.8-4.8-1.8-2.1 0-3.5 1.2-3.5 2.7-.1 1.7.8 2.5 4.4 3.3M135.6 70h-20v8.5h20c1.5 0 2.7 1.2 2.7 2.7v5.7h-22.7c-6.2 0-11.2 5-11.2 11.2v11.7c0 6.2 5 11.2 11.2 11.2h20c6.2 0 11.2-5 11.2-11.2V81.3c.1-6.2-5-11.3-11.2-11.3m2.7 39.9c0 1.5-1.2 2.7-2.7 2.7h-20c-1.5 0-2.7-1.2-2.7-2.7V98.2c0-1.5 1.2-2.7 2.7-2.7h22.7v14.4zM270 70h-20c-6.2 0-11.2 5-11.2 11.2v28.6c0 6.2 5 11.2 11.2 11.2h20v-8.5h-20c-1.5 0-2.7-1.2-2.7-2.7v-5.7H270c6.2 0 11.2-5 11.2-11.2V81.3c0-6.2-5-11.3-11.2-11.3m2.7 23c0 1.5-1.2 2.7-2.7 2.7h-22.7V81.3c0-1.5 1.2-2.7 2.7-2.7h20c1.5 0 2.7 1.2 2.7 2.7V93zm-55.5-23h-20C191 70 186 75 186 81.2V110c0 6.2 5 11.2 11.2 11.2h22.7v5.7c0 1.5-1.2 2.7-2.7 2.7h-20v8.5h20c6.2 0 11.2-5 11.2-11.2V81.3c.1-6.2-5-11.3-11.2-11.3m-22.7 40V81.3c0-1.5 1.2-2.7 2.7-2.7h20c1.5 0 2.7 1.2 2.7 2.7v31.5h-22.7c-1.4-.1-2.7-1.3-2.7-2.8m-28.9-28.7v39.9h-8.5V81.3c0-6.2 5-11.2 11.2-11.2h7.5v8.5h-7.5c-1.4-.1-2.7 1.2-2.7 2.7M101 78.5H90.8v42.6h-8.5v-68h8.5V70H101v8.5zm209.2 0H300v42.6h-8.5v-68h8.5V70h10.2v8.5z" transform="matrix(1, 0, 0, 1, 13.904205, 33.164593)" style="fill: rgb(255, 255, 255);"/>
  <path d="M 13.904 85.565 L 13.904 120.965 L 43.404 137.965 L 43.404 173.365 L 75.304 154.965 L 75.304 86.965 L 104.804 69.965 L 104.804 33.165 L 13.904 85.565 Z M 101.104 69.265 L 75.204 84.165 L 75.204 54.365 L 101.104 69.265 L 101.104 69.265 Z M 17.504 86.265 L 43.404 71.365 L 43.404 101.165 L 43.204 101.065 L 17.504 86.265 L 17.504 86.265 Z M 71.604 86.265 L 45.804 101.165 L 45.804 71.365 L 71.604 86.265 L 71.604 86.265 Z M 43.404 135.165 L 17.504 120.265 L 43.404 105.365 L 43.404 135.165 Z M 45.804 135.165 L 45.804 105.365 L 71.704 120.265 L 45.804 135.165 Z M 47.004 103.265 L 72.904 88.365 L 72.904 118.165 L 47.004 103.265 Z M 72.804 84.165 L 47.004 69.265 L 72.904 54.365 L 72.904 84.165 L 72.804 84.165 Z M 42.204 103.265 L 16.304 118.165 L 16.304 88.365 L 42.204 103.265 L 42.204 103.265 Z M 71.104 153.965 L 71.704 154.265 L 45.804 169.165 L 45.804 139.265 L 71.104 153.965 Z M 47.004 137.265 L 71.204 123.265 L 72.804 122.365 L 72.804 152.265 L 47.004 137.265 L 47.004 137.265 Z M 76.404 52.265 L 102.304 37.365 L 102.304 67.165 L 76.404 52.265 L 76.404 52.265 Z" style="fill: rgb(255, 0, 0);"/>
</svg>